<svg xmlns:dc="http://purl.org/dc/elements/1.1/" xmlns:cc="http://creativecommons.org/ns#" xmlns:rdf="http://www.w3.org/1999/02/22-rdf-syntax-ns#" xmlns:svg="http://www.w3.org/2000/svg" xmlns="http://www.w3.org/2000/svg" xmlns:sodipodi="http://sodipodi.sourceforge.net/DTD/sodipodi-0.dtd" xmlns:inkscape="http://www.inkscape.org/namespaces/inkscape" viewBox="0 0 8.4666665 10.583333625" version="1.1" x="0px" y="0px"><g transform="translate(0,-288.53332)"><path style="opacity:1;fill:#000000;fill-opacity:1;stroke:none;stroke-width:1;stroke-linecap:butt;stroke-linejoin:round;stroke-miterlimit:4;stroke-dasharray:none;stroke-opacity:1" d="m 3.0427266,290.61691 0.017568,0.8599 0.6671416,0 0,0.79168 0.5720609,0.85628 -5.292e-4,2.12235 3.5062452,0 c -4.23e-5,-1.89598 0,-4.63021 0,-4.63021 z m 1.256255,4.89479 0,1.18029 0.1989534,0.0103 2.6458334,0 c 0.3664479,0 0.6614584,-0.29501 0.6614584,-0.66146 -1.06e-5,-0.17639 5.3e-6,-0.3234 0,-0.52917 z"/><path d="m 1.2356013,291.67525 c -2.038e-4,0.17655 2.593e-4,0.52967 2.593e-4,0.52967 0,0 1.5287625,0 2.2931411,0 l 0,-0.52917 z" style="" fill="#000000" fill-opacity="1" fill-rule="evenodd" stroke="none"/><path d="m 1.140518,292.469 -0.44700301,0.65886 0.85472851,0 -0.4041087,-0.65939 z" style="" fill="#000000" fill-opacity="1" fill-rule="evenodd" stroke="none"/><path d="m 1.4541921,292.469 0.4046273,0.65989 2.2060668,0.003 -0.441833,-0.66146 z" style="" fill="#000000" fill-opacity="1" fill-rule="evenodd" stroke="none"/><path d="m 0.66302705,293.39298 -0.001587,3.30935 0.99218755,0 0,-3.30832 z" style="" fill="#000000" fill-opacity="1" fill-rule="evenodd" stroke="none"/><path style="" d="m 1.9182475,293.39348 0,3.30833 2.1822966,0 5.291e-4,-3.30574 z m 1.0914062,1.25729 c 0,0 0.2645834,0.44164 0.2645834,0.56689 0,0.12528 -0.1184487,0.22686 -0.2645834,0.22686 -0.1461188,0 -0.2645833,-0.10155 -0.2645833,-0.22686 0,-0.12525 0.2645833,-0.56689 0.2645833,-0.56689 z" fill="#000000" fill-opacity="1" fill-rule="evenodd" stroke="none"/><path d="m 6.8507725,288.83098 -0.2437733,0.22014 c 0.3119583,0.35167 0.5169564,0.87952 0.4844424,1.35341 l 0.3233065,-0.002 c 0.047886,-0.58082 -0.157666,-1.1539 -0.5639756,-1.57148 z m -0.4400269,0.39739 -1.3175008,1.19011 0.9399658,-0.006 a 0.13222773,0.13230496 0 0 1 0.1001938,-0.20515 0.13222773,0.13230496 0 0 1 0.014967,0 0.13222773,0.13230496 0 0 1 0.090381,0.0403 l 0.063007,0.062 a 0.13238354,0.13246085 0 0 1 0.038742,0.10025 l 0.4870219,-0.003 c 0.032437,-0.38105 -0.1549757,-0.87959 -0.4167819,-1.17822 z m -0.055778,0.50643 a 0.13222773,0.13230496 0 0 1 9.625e-4,0 0.13222773,0.13230496 0 0 1 0.091416,0.0408 l 0.061977,0.062 a 0.13226561,0.13234286 0 1 1 -0.1869604,0.18706 l -0.061977,-0.062 a 0.13222773,0.13230496 0 0 1 0.094515,-0.22789 z m -0.3987106,0.15038 a 0.13222773,0.13230496 0 0 1 4.813e-4,0 l 0,4.8e-4 a 0.13222773,0.13230496 0 0 1 0.091931,0.22737 l -0.063007,0.062 a 0.13222773,0.13230496 0 1 1 -0.1859257,-0.18707 l 0.061972,-0.062 a 0.13222773,0.13230496 0 0 1 0.094515,-0.0408 z" style="opacity:1;fill:#000000;fill-opacity:1;stroke:none;stroke-width:0.5496102;stroke-linecap:round;stroke-linejoin:round;stroke-miterlimit:4;stroke-dasharray:none;stroke-dashoffset:0;stroke-opacity:1"/><path d="m 3.464612,289.66762 c -0.025971,0.001 -0.049832,0.006 -0.070797,0.0145 -0.1893544,0.0785 -0.2632657,0.32638 -0.3183282,0.52245 -0.0175,0.0623 -0.027969,0.13679 -0.035655,0.21394 l 1.7947217,0 -0.06201,-0.21342 c -0.055063,-0.19607 -0.1289737,-0.44391 -0.3183281,-0.52245 -0.1677352,-0.0695 -0.5302013,0.12609 -0.5302013,0.12609 0,0 -0.277614,-0.14971 -0.4594013,-0.14056 z" style="" fill="#000000" fill-opacity="1" fill-rule="evenodd" stroke="none"/><path d="m 4.0199297,289.15963 a 0.13183532,0.13277612 0 0 0 -0.1235075,0.078 c 0,0 -0.077766,0.16117 -0.1116198,0.30075 0.016351,0.003 0.036034,0.006 0.049609,0.0109 0.05166,0.0204 0.058227,0.0261 0.090951,0.0419 0.041664,-0.0203 0.059695,-0.0325 0.1343581,-0.0594 0.00185,-5.3e-4 0.00386,-0.001 0.00569,-0.002 0.030279,-0.0827 0.069765,-0.17932 0.069765,-0.17932 A 0.13183532,0.13277612 0 0 0 4.019935,289.15958 Z" style="color:#000000;font-style:normal;font-variant:normal;font-weight:normal;font-stretch:normal;font-size:medium;line-height:normal;font-family:sans-serif;text-indent:0;text-align:start;text-decoration:none;text-decoration-line:none;text-decoration-style:solid;text-decoration-color:#000000;letter-spacing:normal;word-spacing:normal;text-transform:none;direction:ltr;writing-mode:lr-tb;baseline-shift:baseline;text-anchor:start;white-space:normal;clip-rule:nonzero;display:inline;overflow:visible;visibility:visible;opacity:1;isolation:auto;mix-blend-mode:normal;color-interpolation:sRGB;color-interpolation-filters:linearRGB;solid-color:#000000;solid-opacity:1;fill:#000000;fill-opacity:1;fill-rule:evenodd;stroke:none;stroke-width:0.99999988;stroke-linecap:round;stroke-linejoin:round;stroke-miterlimit:4;stroke-dasharray:none;stroke-dashoffset:0;stroke-opacity:1;color-rendering:auto;image-rendering:auto;shape-rendering:auto;text-rendering:auto;enable-background:accumulate"/></g><text x="0" y="23.4666669" fill="#000000" font-size="5px" font-weight="bold" font-family="'Helvetica Neue', Helvetica, Arial-Unicode, Arial, Sans-serif">Created by anbileru adaleru</text><text x="0" y="28.4666669" fill="#000000" font-size="5px" font-weight="bold" font-family="'Helvetica Neue', Helvetica, Arial-Unicode, Arial, Sans-serif">from the Noun Project</text></svg>