<svg xmlns="http://www.w3.org/2000/svg" data-name="Layer 1" viewBox="0 0 96 120" x="0px" y="0px"><rect x="72" y="55" width="2" height="3"/><rect x="65" y="55" width="2" height="3"/><rect x="58" y="55" width="2" height="3"/><path d="M92.75049,86.66113l-1.501-1.32226L89.514,87.30914l-.05646-.11285H89.457a2.70194,2.70194,0,0,0-4.50781-.502l-3.50147,4.27832a1.97617,1.97617,0,0,0,1.39746,3.22265l5.75489.38379c.062.00391.124.00586.18554.00586a2.70268,2.70268,0,0,0,2.41065-3.91113l-.3902-.7804,2.14459.10559.09864-1.998-1.418-.06934Zm-3.38672,5.61035a.69425.69425,0,0,1-.63135.31153l-5.73681-.34375L86.49707,87.96a.6879.6879,0,0,1,.54346-.25683c.03027,0,.05664.00195.07763.0039a.69619.69619,0,0,1,.5503.38379l1.73877,3.47754A.69066.69066,0,0,1,89.36377,92.27148Z"/><rect x="30" y="80" width="31" height="2"/><path d="M93,64H90.611a15.45493,15.45493,0,0,0,.96521-1.74707A19.09587,19.09587,0,0,0,93,55V45.98828a15.08939,15.08939,0,0,0-9.01038-13.67l1.1344-1.702A23.30948,23.30948,0,0,1,91.61621,24.124l1.93848-1.292A1,1,0,0,0,93,21a25.37436,25.37436,0,0,0-7.98633,1.30267A42.50544,42.50544,0,0,1,88.144,17.47461l.65576-.874a1.00027,1.00027,0,0,0-1.24707-1.49512l-6.45922,3.22961C81.038,17.44794,81,16.56012,81,15.67285V12a.99992.99992,0,0,0-1.92285-.38477l-2.367,5.68085L71.707,12.293a1,1,0,0,0-1.65576,1.02344l.73486,2.20507a23.57864,23.57864,0,0,1,1.16455,6.24964,23.39069,23.39069,0,0,0-6.85107-1.76624,1.01111,1.01111,0,0,0-1.05225.69043.99969.99969,0,0,0,.457,1.17285l.47168.26954c3.94953,2.25762,6.11756,5.86438,7.6673,9.27636A15.1429,15.1429,0,0,0,61.53406,42.2359,8.02717,8.02717,0,0,0,56,40c-.01971,0-.03876.00287-.05847.003A9.51821,9.51821,0,0,0,55,36.76367l-.10547-.21094-1.78906.89454.10547.21093a7.508,7.508,0,0,1,.74646,2.61609,8.00532,8.00532,0,0,0-5.95319,7.64258c-.04828-.00928-.09479-.0238-.14337-.0321a7.13609,7.13609,0,0,0-3.7356.36993,9.69448,9.69448,0,0,1,1.38355-3.71954l-1.68945-1.07032A11.65775,11.65775,0,0,0,42.442,46.56622C39.11328,43.72839,36.385,41.57,34.61035,40.208c-1.46826-1.13281-2.76611-2.10156-3.9375-2.97754-3.8916-2.90723-6.24023-4.66211-8.90381-7.87012A37.765,37.765,0,0,1,16.55823,21H18a.99974.99974,0,0,0,1-1V16a.99974.99974,0,0,0-1-1H4a.99974.99974,0,0,0-1,1v4a.99974.99974,0,0,0,1,1H5.24225A26.91144,26.91144,0,0,0,8.05914,51.311,11.54585,11.54585,0,0,0,4,60a11.21781,11.21781,0,0,0,.753,4H3a.99974.99974,0,0,0-1,1v5a.99974.99974,0,0,0,1,1H6.02539A24.0263,24.0263,0,0,0,30,94H66A24.0263,24.0263,0,0,0,89.97461,71H93a.99974.99974,0,0,0,1-1V65A.99974.99974,0,0,0,93,64Zm-2-9a18.6781,18.6781,0,0,1-.861,5.42889L84.21991,57.3656a18.92211,18.92211,0,0,0,.63422-3.02429l.07458.02978L86.975,49.25537,91,51.57745ZM79.94775,45.20117l5.27692,3.04437-1.111,2.77741A.93509.93509,0,0,0,84,51H77.50616Zm-.96392-2.86487-6.00177-3.46258,1.73565-5.78565A13.75407,13.75407,0,0,1,76.16992,33h1.66016a13.00713,13.00713,0,0,1,4.71545.87714ZM89.30066,62.246A12.69534,12.69534,0,0,1,88.13153,64h-7.437a18.62754,18.62754,0,0,0,2.84106-4.73755ZM91,46v3.26868l-3.27466-1.88922,2.38886-5.97211A13.17012,13.17012,0,0,1,91,46ZM84.3562,34.73108a13.09972,13.09972,0,0,1,4.55133,4.30725L85.975,46.36963l-5.24506-3.026Zm.49927-16.04065a44.38682,44.38682,0,0,0-2.49707,4.35645l-.19806.39611c-.13489.06372-.26843.13013-.40228.19623q-.29809-1.56995-.476-3.16211Zm-4.26172,7.86719a23.37783,23.37783,0,0,1,8.74365-3.26953A25.26867,25.26867,0,0,0,83.46,29.50684l-.84369,1.26587L81.71973,29.54a23.36618,23.36618,0,0,0-2.031-2.41675Zm-1.5752-9.60254a44.79413,44.79413,0,0,0,.84961,7.48437l.04126.20618c-.124.07458-.25244.13989-.37524.21667l-1.33429.834a23.45075,23.45075,0,0,0-2.13324-1.65668ZM75.8783,19.29242l-1.52674,3.66425c-.11816-.0672-.23968-.12854-.359-.19373a25.582,25.582,0,0,0-.80261-6.15845Zm-6.535,3.63043a21.46413,21.46413,0,0,1,10.75928,7.793l.3797.5221A15.20851,15.20851,0,0,0,77.83008,31H76.16992c-.48742,0-.98413.03247-1.4834.08014A24.79734,24.79734,0,0,0,69.34326,22.92285Zm8.85846,21.271L75.33594,51H71.91406l-2.22479-1.15039,2.70233-9.00775ZM67.91846,35.90723a13.10643,13.10643,0,0,1,4.58172-2.38837l-1.29834,4.32782-3.314-1.91193C67.89856,35.92609,67.90765,35.91589,67.91846,35.90723ZM63,46.16992a13.07007,13.07007,0,0,1,3.38745-8.792l4.22394,2.43689-2.73,9.1L63,46.39081Zm0,2.47339,4.29639,2.22156L67.25586,51H63ZM82.97363,53l-.00146.03906a16.96953,16.96953,0,0,1-.89746,4.50489,16.77513,16.77513,0,0,1-3.55713,5.94824c-.1463.17236-.30976.34314-.4729.50781H50.68127A15.19425,15.19425,0,0,0,53.832,57.42969,8.88661,8.88661,0,0,0,53.56134,53ZM56,42a6.02984,6.02984,0,0,1,5.07574,2.81091c-.03985.4502-.07574.90149-.07574,1.359V51H52.59247c-.0188-.02789-.03375-.05829-.05292-.08594a7.31347,7.31347,0,0,0-2.47418-2.24756A5.29147,5.29147,0,0,1,50,48,6.00657,6.00657,0,0,1,56,42ZM43.56592,50.78418a5.35794,5.35794,0,0,1,3.95508-.92871,5.16157,5.16157,0,0,1,3.37451,2.19726,6.62129,6.62129,0,0,1,.97217,5.001A12.83021,12.83021,0,0,1,47.86035,64h-9.1029A11.712,11.712,0,0,0,39,61.66992a11.02571,11.02571,0,0,0-3.13037-7.835,1.47615,1.47615,0,0,1-.42969-1.07519,7.76516,7.76516,0,0,0-.07275-1.015A5.129,5.129,0,0,1,38.481,49.85547a5.35715,5.35715,0,0,1,3.95312.92871A.99889.99889,0,0,0,43.56592,50.78418ZM30,57.26953c-2.56836,0-4.56006,2.82227-4.56006,5.25A4.2181,4.2181,0,0,0,25.73126,64H23.28485A9.70485,9.70485,0,0,1,23,61.66992a9.01118,9.01118,0,0,1,2.52979-6.40527,3.463,3.463,0,0,0,1.03027-2.50488c0-.13672.00879-.26368.01758-.39356.15478-2.31348,1.6582-4.126,3.42236-4.126,1.897,0,3.43994,2.02735,3.43994,4.5293a3.452,3.452,0,0,0,1.02686,2.49121A9.01554,9.01554,0,0,1,37,61.66992,9.70485,9.70485,0,0,1,36.71515,64H34.26874a4.2181,4.2181,0,0,0,.29132-1.48047C34.56006,60.0918,32.56836,57.26953,30,57.26953Zm2.56006,5.25A2.278,2.278,0,0,1,31.99573,64H28.00427a2.278,2.278,0,0,1-.56433-1.48047c0-1.41894,1.24121-3.25,2.56006-3.25S32.56006,61.10059,32.56006,62.51953ZM24.90375,50.47839a13.27251,13.27251,0,0,0-4.3833-2.027c-.92316-1.01856-1.84125-2.10712-2.729-3.25318A37.35119,37.35119,0,0,1,10.5376,30.79,25.94084,25.94084,0,0,1,10.40228,21h1.55377a21.35618,21.35618,0,0,0,1.09668,7.32031c1.08448,3.21192,3.19873,5.56153,10.20362,13.34864,1.53967,1.711,3.16308,3.37152,4.81671,4.98876A6.01552,6.01552,0,0,0,24.90375,50.47839ZM20.23047,30.63867c2.81494,3.39063,5.373,5.30176,9.24512,8.19434,1.16455.87012,2.4541,1.834,3.91552,2.96,1.74408,1.33923,4.41645,3.45257,7.68055,6.23285a6.87041,6.87041,0,0,0-6.35474,1.49988A5.603,5.603,0,0,0,31,46.35553V43H29v1.76526c-1.45782-1.444-2.892-2.9176-4.25635-4.43421C17.9502,32.78027,15.8999,30.501,14.94727,27.67969A19.39817,19.39817,0,0,1,13.97961,21h.35877A39.981,39.981,0,0,0,20.23047,30.63867ZM5,19V17H17v2ZM3.99365,36.8877A25.08708,25.08708,0,0,1,7.55225,21h.81591a27.80018,27.80018,0,0,0,.21436,10.21094c1.05762,4.90625,3.62353,10.02344,7.62695,15.21094.42414.54766.85712,1.078,1.292,1.60076C17.33392,48.01685,17.16864,48,17,48a13.68412,13.68412,0,0,0-7.3363,2.10242A25.01662,25.01662,0,0,1,3.99365,36.8877ZM16,50.04608v1.82923a4.39858,4.39858,0,0,1-1.44531-.61554l-1.10938,1.66406a6.39435,6.39435,0,0,0,7.10938,0l-1.10938-1.66406A4.39731,4.39731,0,0,1,18,51.87531V50.04486a11.40091,11.40091,0,0,1,6.561,2.70075l-.001.02392a1.4742,1.4742,0,0,1-.43311,1.06934A11.02128,11.02128,0,0,0,21,61.66992,11.712,11.712,0,0,0,21.24255,64H6.93646A9.09948,9.09948,0,0,1,6,60C6,54.79315,10.4021,50.50751,16,50.04608ZM87.1615,76H64v2H86.48773a22.112,22.112,0,0,1-7.862,10H58v2H75.148A21.86179,21.86179,0,0,1,66,92H30a21.85788,21.85788,0,0,1-11.06995-3H45V87H16.05219A22.05307,22.05307,0,0,1,8.8385,76H33V74H8.37109a21.95456,21.95456,0,0,1-.3457-3H87.97461A21.88585,21.88585,0,0,1,87.1615,76ZM92,69H4V66H92Z"/><rect x="90" y="2" width="2" height="2"/><rect x="90" y="6" width="2" height="2"/><rect x="92" y="4" width="2" height="2"/><rect x="88" y="4" width="2" height="2"/><rect x="4" y="2" width="2" height="2"/><rect x="4" y="6" width="2" height="2"/><rect x="6" y="4" width="2" height="2"/><rect x="2" y="4" width="2" height="2"/><text x="0" y="111" fill="#000000" font-size="5px" font-weight="bold" font-family="'Helvetica Neue', Helvetica, Arial-Unicode, Arial, Sans-serif">Created by Nithinan Tatah</text><text x="0" y="116" fill="#000000" font-size="5px" font-weight="bold" font-family="'Helvetica Neue', Helvetica, Arial-Unicode, Arial, Sans-serif">from the Noun Project</text></svg>