<svg xmlns="http://www.w3.org/2000/svg" xmlns:xlink="http://www.w3.org/1999/xlink" viewBox="0 0 61 75" version="1.1" x="0px" y="0px"><title>24 -Dessert- (Solid)</title><desc>Created with Sketch.</desc><g stroke="none" stroke-width="1" fill="none" fill-rule="evenodd"><g transform="translate(-480.000000, -567.000000)" fill="#000000"><g transform="translate(480.000000, 567.000000)"><path d="M53.0308,52 L36.0308,52 L24.0308,52 L7.0308,52 C4.6158,52 2.5958,50.279 2.1318,48 L5.0308,48 L10.0308,48 L50.0308,48 L55.0308,48 L57.9298,48 C57.4658,50.279 55.4458,52 53.0308,52 L53.0308,52 Z M15.2798,30 C15.4778,30.274 15.6098,30.591 15.7128,30.911 C15.7798,31.12 16.0278,31.702 15.9518,31.912 C15.8938,32.072 15.4808,32 15.2948,32 L12.7358,32 L11.0308,32 L11.0308,30 L14.8868,30 C15.0158,30 15.1538,30.003 15.2798,30 L15.2798,30 Z M45.0308,31.311 L45.0308,32 L30.0308,32 C30.0308,31.667 30.2508,30.537 30.4608,30 L43.7198,30 C44.4428,30 45.0308,30.588 45.0308,31.311 L45.0308,31.311 Z M49.0308,37 L49.0308,39 L11.0308,39 L11.0308,34 L16.0308,34 C16.0308,36.206 17.8248,38 20.0308,38 L20.0308,38 L20.0308,38 C22.2368,38 24.0308,36.206 24.0308,34 L45.2058,34 C45.2088,34.013 45.2158,34.026 45.2198,34.039 C45.5058,35.025 46.1258,35.851 46.9548,36.379 C46.9578,36.381 46.9588,36.382 46.9628,36.384 C46.9658,36.386 46.9688,36.387 46.9718,36.39 C47.1538,36.504 47.3428,36.604 47.5418,36.688 C47.5818,36.703 47.6198,36.722 47.6598,36.736 L47.7618,36.774 C47.8338,36.804 47.9088,36.829 47.9848,36.852 C48.2528,36.927 48.5298,36.979 48.8178,36.994 C48.8878,36.998 48.9508,37.005 49.0308,37 L49.0308,37 Z M41.0908,23 C41.3538,20.891 42.4108,19.727 43.0358,19.211 C43.6558,19.718 44.7118,20.875 44.9718,23 L41.0908,23 Z M28.0908,23 C28.3538,20.891 29.4108,19.727 30.0358,19.211 C30.6558,19.718 31.7118,20.875 31.9718,23 L28.0908,23 Z M15.0908,23 C15.3538,20.891 16.4108,19.727 17.0358,19.211 C17.6558,19.718 18.7118,20.875 18.9718,23 L15.0908,23 Z M6.0308,23.409 C6.0308,14.361 13.3918,7 22.4408,7 C24.4258,7 26.1848,5.809 26.9218,3.966 L26.9978,3.777 C27.4288,2.697 28.4588,2 29.6218,2 L30.4408,2 C31.6028,2 32.6328,2.697 33.0648,3.776 L33.1398,3.966 C33.8778,5.809 35.6368,7 37.6218,7 C46.6698,7 54.0308,14.361 54.0308,23.409 L54.0308,46 L51.0308,46 L51.0308,40.002 L51.0308,40 L51.0308,36.454 C51.2978,36.299 51.5538,36.12 51.7838,35.902 C52.5758,35.15 53.0308,34.092 53.0308,33 L53.0308,26.565 C53.0308,24.599 51.4318,23 49.4658,23 L46.9798,23 C46.5698,18.739 43.6198,17.178 43.4858,17.109 C43.1978,16.963 42.8558,16.963 42.5688,17.113 C42.4348,17.183 39.4948,18.77 39.0818,23 L33.9798,23 C33.5698,18.739 30.6198,17.178 30.4858,17.109 C30.1978,16.963 29.8558,16.963 29.5688,17.113 C29.4348,17.183 26.4948,18.77 26.0818,23 L20.9798,23 C20.5698,18.739 17.6198,17.178 17.4858,17.109 C17.1978,16.963 16.8558,16.963 16.5688,17.113 C16.4348,17.183 13.4948,18.77 13.0818,23 L10.5958,23 C8.6298,23 7.0308,24.599 7.0308,26.565 L7.0308,29 C7.0308,29.552 7.4788,30 8.0308,30 L9.0308,30 L9.0308,33 L9.0308,39.998 L9.0308,40 L9.0308,46 L6.0308,46 L6.0308,23.409 Z M59.0308,46 L56.0308,46 L56.0308,23.409 C56.0308,13.258 47.7728,5 37.6218,5 C36.4588,5 35.4288,4.303 34.9978,3.224 L34.9218,3.034 C34.7718,2.658 34.5688,2.317 34.3408,2 L36.0308,2 C36.5828,2 37.0308,1.552 37.0308,1 C37.0308,0.448 36.5828,0 36.0308,0 L30.4408,0 L29.6218,0 L24.0308,0 C23.4788,0 23.0308,0.448 23.0308,1 C23.0308,1.552 23.4788,2 24.0308,2 L25.7218,2 C25.4928,2.317 25.2908,2.658 25.1398,3.034 L25.0648,3.223 C24.6328,4.303 23.6028,5 22.4408,5 C12.2888,5 4.0308,13.258 4.0308,23.409 L4.0308,46 L1.0308,46 C0.4788,46 0.0308,46.448 0.0308,47 C0.0308,50.86 3.1708,54 7.0308,54 L22.7528,54 C22.4058,54.595 21.7678,55 21.0308,55 L15.0308,55 C14.4788,55 14.0308,55.448 14.0308,56 L14.0308,58 L12.0308,58 C11.4788,58 11.0308,58.448 11.0308,59 C11.0308,59.552 11.4788,60 12.0308,60 L15.0308,60 L45.0308,60 L48.0308,60 C48.5828,60 49.0308,59.552 49.0308,59 C49.0308,58.448 48.5828,58 48.0308,58 L46.0308,58 L46.0308,56 C46.0308,55.448 45.5828,55 45.0308,55 L39.0308,55 C38.2938,55 37.6558,54.595 37.3088,54 L53.0308,54 C56.8908,54 60.0308,50.86 60.0308,47 C60.0308,46.448 59.5828,46 59.0308,46 L59.0308,46 Z"/></g></g></g><text x="0" y="75" fill="#000000" font-size="5px" font-weight="bold" font-family="'Helvetica Neue', Helvetica, Arial-Unicode, Arial, Sans-serif">Created by Ben Davis</text><text x="0" y="80" fill="#000000" font-size="5px" font-weight="bold" font-family="'Helvetica Neue', Helvetica, Arial-Unicode, Arial, Sans-serif">from the Noun Project</text></svg>